HIERARCHY
ROOT Hips
{
     OFFSET 14.45940 93.76930 -21.77700
     CHANNELS 6 Xposition Yposition Zposition Zrotation Xrotation Yrotation
     JOINT Spine
     {
          OFFSET -0.00000 11.89050 0.00000
          CHANNELS 3 Zrotation Xrotation Yrotation
          JOINT Spine1
          {
               OFFSET -0.00000 25.65740 0.12766
               CHANNELS 3 Zrotation Xrotation Yrotation
               JOINT HEad
               {
                    OFFSET -0.00000 8.73416 0.01134
                    CHANNELS 3 Zrotation Xrotation Yrotation
                    End Site
                    {
                         OFFSET -0.29000 12.77420 2.51395
                    }
               }
               JOINT LeftShoulder1
               {
                    OFFSET 8.99000 -0.36225 -0.22000
                    CHANNELS 3 Zrotation Xrotation Yrotation
                    JOINT LeftArm
                    {
                         OFFSET 10.28270 -0.00338 0.32212
                         CHANNELS 3 Zrotation Xrotation Yrotation
                         JOINT LeftForeArm
                         {
                              OFFSET 32.76690 0.09914 -1.42434
                              CHANNELS 3 Zrotation Xrotation Yrotation
                              JOINT LeftHand
                              {
                                   OFFSET 27.56430 0.08536 1.02216
                                   CHANNELS 3 Zrotation Xrotation Yrotation
                                   End Site
                                   {
                                        OFFSET 16.74430 -0.60000 1.50291
                                   }
                              }
                         }
                    }
               }
               JOINT RightShoulder
               {
                    OFFSET -8.99000 -0.36225 -0.22000
                    CHANNELS 3 Zrotation Xrotation Yrotation
                    JOINT RightArm
                    {
                         OFFSET -10.28270 -0.00338 0.32212
                         CHANNELS 3 Zrotation Xrotation Yrotation
                         JOINT RightForeArm
                         {
                              OFFSET -32.89710 0.09914 -1.42434
                              CHANNELS 3 Zrotation Xrotation Yrotation
                              JOINT RightHand
                              {
                                   OFFSET -27.49210 0.08536 1.02216
                                   CHANNELS 3 Zrotation Xrotation Yrotation
                                   End Site
                                   {
                                        OFFSET -16.63120 -0.60000 1.50291
                                   }
                              }
                         }
                    }
               }
          }
     }
     JOINT LeftUpLeg
     {
          OFFSET 8.94580 -8.66707 0.10165
          CHANNELS 3 Zrotation Xrotation Yrotation
          JOINT LeftLeg
          {
               OFFSET -0.00000 -44.42270 1.37270
               CHANNELS 3 Zrotation Xrotation Yrotation
               JOINT LeftFoot
               {
                    OFFSET -0.25355 -42.09240 -1.46059
                    CHANNELS 3 Zrotation Xrotation Yrotation
                    JOINT LeftToes
                    {
                         OFFSET -0.04000 -4.41509 8.49910
                         CHANNELS 3 Zrotation Xrotation Yrotation
                         End Site
                         {
                              OFFSET 0.08000 -0.04745 9.77979
                         }
                    }
               }
          }
     }
     JOINT RightUpLeg
     {
          OFFSET -8.94580 -8.66707 0.10165
          CHANNELS 3 Zrotation Xrotation Yrotation
          JOINT RightLeg
          {
               OFFSET -0.00000 -44.42270 1.37270
               CHANNELS 3 Zrotation Xrotation Yrotation
               JOINT RightFoot
               {
                    OFFSET 0.25355 -42.09240 -1.46059
                    CHANNELS 3 Zrotation Xrotation Yrotation
                    JOINT RightToes
                    {
                         OFFSET 0.04000 -4.41509 8.49910
                         CHANNELS 3 Zrotation Xrotation Yrotation
                         End Site
                         {
                              OFFSET -0.08000 -0.13745 9.77979
                         }
                    }
               }
          }
     }
}
MOTION
Frames: 13
Frame Time: 0.01667
20.10420 88.90140 1.64144 6.97510 -16.13780 21.17590 -0.89687 12.62120 5.51890 -6.69718 25.16410 18.30540 13.12110 -18.11720 -39.96930 -0.00000 0.00000 -0.00000 -103.51100 -37.81960 -84.02890 -63.00030 59.71450 -67.61590 20.73740 6.43492 -15.31080 -28.30220 -1.18850 4.63284 64.95010 -26.25730 89.31930 -30.92960 -5.36851 8.71473 29.10390 5.75896 -19.91380 1.72007 -19.80440 -12.57200 -20.20210 20.09900 47.15020 3.87866 28.81570 -1.42526 -0.40738 -32.04270 -76.39460 -27.02100 19.84250 7.05948 55.19890 33.12460 -51.83500 -33.85010 8.59571 4.87130 17.79860 -61.55670 23.78170 
19.52350 88.72920 2.11875 7.07123 -16.10050 22.79260 -1.59673 12.90110 4.69023 -7.48367 25.61670 16.77980 13.57190 -17.84360 -36.06990 -0.00000 0.00000 -0.00000 -104.21100 -36.76050 -84.87240 -61.68560 61.08770 -67.55830 19.87640 6.72524 -14.51150 -25.16510 -0.98726 4.52871 67.39250 -26.04880 86.28930 -33.65960 -5.36863 14.99730 24.15270 8.39849 -11.20870 1.73359 -20.33650 -12.00630 -20.28860 21.29360 47.49630 3.86524 28.76850 -1.41906 -0.49931 -32.06490 -77.05570 -25.87810 20.35500 7.10106 55.18130 33.11130 -51.14150 -33.06860 8.81621 4.81690 17.54390 -61.97800 22.94220 
19.11610 88.64720 2.63362 6.94436 -16.04090 23.40180 -2.30823 13.21550 3.77016 -8.38565 26.12470 15.07990 12.85780 -17.21280 -31.82990 -0.00000 0.00000 -0.00000 -105.82200 -35.91180 -86.48190 -62.44540 62.25230 -65.02110 20.22370 6.66987 -14.49150 -21.43560 -0.79545 4.66351 73.48170 -26.49250 85.41230 -29.54140 -4.40799 34.13600 18.16850 9.69589 -5.56883 2.07259 -20.74040 -11.16450 -20.46860 22.22670 48.16850 4.03086 28.53900 -1.46209 -0.57404 -32.10080 -77.50320 -25.01610 20.33880 7.33491 54.96660 33.37540 -50.25980 -32.22150 9.66674 4.93388 18.50300 -62.90040 23.94850 
18.92650 88.66310 3.16205 6.54183 -15.86610 23.06500 -2.92775 13.44200 2.80353 -9.22240 26.47990 13.27840 11.73380 -16.63350 -27.75680 -0.00000 0.00000 -0.00000 -107.91100 -35.17650 -88.39110 -64.90440 62.87280 -60.54780 21.26420 6.38879 -15.05540 -17.08050 -0.56123 4.80791 83.64820 -27.15770 87.48250 -23.43890 1.90264 54.39910 13.28250 10.02490 -3.29316 2.68140 -21.14650 -10.38800 -20.74650 22.88790 49.15400 4.36234 28.15200 -1.54947 -0.77618 -32.40940 -77.69770 -24.53380 19.84880 7.42510 54.67790 33.88700 -49.15350 -31.33500 11.01720 5.17354 20.32580 -63.82470 26.42910 
18.95590 88.75660 3.66417 5.80641 -15.58840 21.93110 -3.38071 13.52360 1.77711 -9.78701 26.59640 11.32900 10.82380 -16.22930 -23.84580 -0.00000 0.00000 -0.00000 -110.04100 -34.69380 -90.23420 -67.83280 62.78040 -55.69990 22.07900 6.10894 -15.76320 -11.82200 -0.26335 4.93389 93.76210 -26.84410 89.69520 -14.69040 10.31840 71.10960 10.56720 10.19680 -1.27952 3.58850 -21.67380 -9.95487 -21.18060 23.37950 50.48390 4.81226 27.68380 -1.66728 -1.18109 -33.11500 -77.66080 -24.35100 18.92460 7.20434 54.47890 34.68990 -47.68100 -30.25700 12.64560 5.43229 21.77860 -63.99010 28.83560 
19.19080 88.89740 4.09940 4.68728 -15.27790 20.00890 -3.62637 13.48340 0.69679 -9.92627 26.52260 9.22250 10.19360 -16.04230 -19.87440 -0.00000 0.00000 -0.00000 -112.10500 -34.80640 -91.96150 -70.27620 62.18490 -51.81640 22.15750 6.00942 -16.20140 -5.65921 0.09788 5.18869 99.97900 -25.77840 89.48950 -3.75159 18.89940 81.56350 10.47180 10.47660 1.64181 4.94267 -22.33960 -9.93309 -21.90900 23.76010 52.38360 5.31468 27.14180 -1.79347 -1.72432 -34.08940 -77.48100 -24.37270 17.53990 6.80468 54.49380 35.82070 -45.83880 -28.88610 14.48210 5.65491 21.67350 -62.95490 29.64350 
19.62070 89.05790 4.44086 3.17478 -14.98590 17.19380 -3.66480 13.39700 -0.38228 -9.58627 26.38360 7.04463 9.63878 -16.16320 -15.61510 -0.00000 0.00000 -0.00000 -114.29000 -35.79460 -93.79240 -72.10170 61.47420 -49.28920 21.63480 6.09074 -16.28640 0.97318 0.52247 5.56409 101.71600 -24.74570 86.90530 6.97278 26.70820 86.85430 12.21000 10.89990 4.62019 6.86643 -23.06030 -10.12680 -22.96490 24.06620 55.04340 5.79006 26.48340 -1.90009 -2.29667 -35.10640 -77.32440 -24.58290 15.67320 6.48610 54.75190 37.22850 -43.91770 -27.40970 16.61360 5.88379 20.03180 -60.87680 28.65130 
20.23480 89.21470 4.67908 1.33600 -14.71830 13.44710 -3.54765 13.35170 -1.37858 -8.81231 26.31170 4.93203 9.01492 -16.58790 -10.95140 -0.00000 0.00000 -0.00000 -116.92400 -37.72220 -96.06510 -73.64210 60.98020 -47.81570 20.97510 6.21964 -16.25560 7.44742 0.96938 5.81858 100.07600 -23.77070 83.06550 15.26920 33.08190 89.81930 14.07620 11.37600 7.19365 9.30452 -23.71680 -10.23680 -24.17660 24.42080 58.36520 6.12899 25.72830 -1.95548 -2.84564 -36.03540 -77.32700 -25.02260 13.40680 6.36439 55.18280 38.78360 -42.47050 -26.34790 19.01360 6.22309 17.98050 -58.52850 26.91490 
21.01280 89.34910 4.81962 -0.70731 -14.45830 8.89374 -3.35456 13.40320 -2.22278 -7.71475 26.38220 3.00405 8.27634 -17.15260 -5.95229 -0.00000 0.00000 -0.00000 -120.37000 -40.45060 -99.11720 -75.26260 60.91160 -46.86430 20.62680 6.26653 -16.35520 13.10370 1.34493 5.77125 96.57920 -22.43790 78.98960 20.75550 37.73120 92.31080 15.25550 11.78650 9.28936 12.06400 -24.20420 -10.11210 -25.35260 24.97550 62.03470 6.23602 24.94250 -1.93843 -3.35131 -36.84710 -77.45100 -25.71810 10.93360 6.34310 55.64450 40.32550 -42.15530 -26.32000 21.26090 6.75704 16.51370 -56.80780 25.51400 
21.92070 89.44630 4.88295 -2.83595 -14.16900 3.76916 -3.13993 13.55100 -2.87567 -6.42028 26.58180 1.32876 7.43796 -17.66820 -0.85250 -0.00000 0.00000 -0.00000 -124.95700 -43.68670 -103.23100 -77.22320 61.30540 -45.90710 20.81780 6.17939 -16.63730 17.37950 1.57714 5.47153 91.07860 -19.46920 74.55680 22.92200 38.70670 96.10810 16.46550 12.09930 10.41110 14.96500 -24.45210 -9.78733 -26.46260 25.75290 65.73000 6.12713 24.14540 -1.85932 -3.80070 -37.56980 -77.52980 -26.64780 8.46350 6.26794 55.95400 41.67790 -43.47840 -27.64190 22.54290 7.43345 15.69340 -55.94170 24.55550 
22.91100 89.50030 4.90499 -4.95016 -13.78800 -1.66902 -2.91107 13.74630 -3.32245 -5.04190 26.83090 -0.06617 6.58522 -17.99350 4.03224 -0.00000 0.00000 -0.00000 -130.71500 -47.02370 -108.47700 -79.54630 61.91540 -44.65750 21.44880 5.98418 -17.03720 20.08680 1.66345 5.05417 87.03180 -16.25710 71.58040 24.00510 38.92910 99.31700 17.34070 12.28300 10.85610 17.89280 -24.41390 -9.33447 -27.56450 26.61990 69.20650 5.94650 23.30570 -1.75994 -4.22086 -38.29980 -77.41970 -27.76290 6.16716 6.12163 55.91520 42.58130 -46.42180 -30.03260 22.09280 7.97798 14.88170 -55.32340 23.31930 
23.92180 89.51510 4.92612 -6.95296 -13.25760 -7.18869 -2.66490 13.92650 -3.55758 -3.66933 27.03640 -1.16402 5.81709 -17.99920 8.37963 -0.00000 0.00000 -0.00000 -136.92300 -50.08420 -114.33500 -81.65010 62.25390 -43.50300 22.16780 5.74839 -17.52930 21.46210 1.63376 4.56083 84.80700 -13.32210 70.14770 24.36420 38.81250 101.57700 17.71670 12.35930 11.01740 20.75150 -24.05870 -8.79275 -28.67180 27.40010 72.32350 5.84958 22.39080 -1.68101 -4.65088 -39.14010 -77.03430 -29.00940 4.19303 6.09268 55.36560 42.65260 -50.08480 -32.69860 19.85210 8.04836 13.43600 -53.98310 21.18780 
24.87000 89.49320 4.96724 -8.72759 -12.57290 -12.60050 -2.46377 14.05850 -3.56969 -2.38630 27.14850 -1.94338 5.16548 -17.63100 11.93530 -0.00000 0.00000 -0.00000 -142.31400 -52.74490 -119.71600 -82.57470 61.95300 -43.29830 22.62720 5.53320 -18.14680 21.90710 1.51415 3.95291 83.87090 -10.65250 69.88530 23.98070 38.30380 102.99900 17.48580 12.35450 11.18250 23.41030 -23.39330 -8.19217 -29.72740 27.99830 75.07550 5.87830 21.42550 -1.63277 -5.07424 -40.09890 -76.31710 -30.32180 2.66027 6.46166 54.22170 41.53860 -52.84530 -34.85390 16.79410 7.63385 11.46470 -51.53200 18.44860 
